<svg id="Component_125_1" data-name="Component 125 – 1" xmlns="http://www.w3.org/2000/svg" width="33.195" height="41.084" viewBox="0 0 33.195 41.084">
  <g id="Group_5899" data-name="Group 5899" transform="translate(0 0)">
    <g id="Group_5897" data-name="Group 5897" transform="translate(28.534 23.375)">
      <g id="Group_5896" data-name="Group 5896">
        <g id="Group_5895" data-name="Group 5895">
          <path id="Path_2907" data-name="Path 2907" d="M418.241,856.652c-.028-.108-.057-.217-.088-.325C418.185,856.435,418.213,856.543,418.241,856.652Z" transform="translate(-417.928 -856.261)" fill="#d80c1b"/>
          <path id="Path_2908" data-name="Path 2908" d="M417.348,856.513c-.027-.106-.056-.213-.086-.319l.449-.131c.036.122.067.242.09.334Z" transform="translate(-417.262 -856.064)" fill="#d80c1b"/>
        </g>
      </g>
    </g>
    <g id="Group_5898" data-name="Group 5898" transform="translate(0 0)">
      <path id="Path_2909" data-name="Path 2909" d="M336.636,768.547l-1.039.906-.149-.1-.018-.013-.007-.005a25.344,25.344,0,0,0-8.805-3.944l-.245-.057a25.641,25.641,0,0,0-11.659.058,25.357,25.357,0,0,0-9.409,4.438c-.263.2-.517.4-.754.592l-.383.313,0-1.73.09-.07c.259-.2.518-.394.769-.573.121-.089.254-.183.4-.285a26.815,26.815,0,0,1,12.944-4.659h.031a27.017,27.017,0,0,1,4.614,0h.021q.393.034.783.08.2.022.391.048l.144.019q.473.064.944.146a26.772,26.772,0,0,1,10.687,4.373c.137.094.273.19.4.286Z" transform="translate(-304.138 -763.321)" fill="#d80c1b"/>
      <path id="Path_2910" data-name="Path 2910" d="M334.266,777.919l.259.175-1.064.877-.145-.1a22.732,22.732,0,0,0-7.189-3.141l-.018.017-.123-.029a22.922,22.922,0,0,0-20.7,5.325c-.258.233-.511.473-.754.714l-.4.4,0-1.878.075-.069c.244-.226.5-.455.77-.68.123-.106.248-.211.38-.317a24.06,24.06,0,0,1,14.4-5.43,24.3,24.3,0,0,1,14.5,4.133Z" transform="translate(-304.115 -771.135)" fill="#d80c1b"/>
      <path id="Path_2911" data-name="Path 2911" d="M336.946,826.006l.476.1-1.3,1.073-.1-.015a9.819,9.819,0,0,0-10.922,7.451c-.144.672-.3,1.342-.475,1.986l-.019.072-1.8,1.485.217-.733c.3-1.011.567-2.048.793-3.082a11.159,11.159,0,0,1,13.135-8.338Z" transform="translate(-318.075 -810.028)" fill="#d80c1b"/>
      <path id="Path_2912" data-name="Path 2912" d="M332.133,787.3l.275.172-1.14.94-.142-.086a20.409,20.409,0,0,0-3.248-1.586,20.311,20.311,0,0,0-22.6,5.674c-.262.3-.515.612-.754.924l-.421.55.005-2.184.055-.065c.258-.3.517-.591.771-.859a21.64,21.64,0,0,1,27.2-3.481Z" transform="translate(-304.087 -778.791)" fill="#d80c1b"/>
      <path id="Path_2913" data-name="Path 2913" d="M328.625,816.195l.382.141-1.2.992-.121-.039c-.315-.1-.639-.193-.965-.271a12.454,12.454,0,0,0-14.978,9.227,45.149,45.149,0,0,1-1.637,5.634l-.022.06-1.517,1.251-.2-.509.034-.085c.149-.384.284-.742.41-1.092a45.9,45.9,0,0,0,1.621-5.566,13.782,13.782,0,0,1,16.6-10.227A13.949,13.949,0,0,1,328.625,816.195Z" transform="translate(-307.276 -802.223)" fill="#d80c1b"/>
      <path id="Path_2914" data-name="Path 2914" d="M327.761,806.536l.331.158-.985.811-.133-.06a15.169,15.169,0,0,0-2.959-.987,15.06,15.06,0,0,0-17.973,11.43c-.2.867-.425,1.728-.665,2.559-.163.566-.341,1.142-.53,1.711l-.282.849-.17-.879a16.573,16.573,0,0,1-.273-2.189l0-.039.011-.038c.214-.764.412-1.543.589-2.317v-.006l0-.013v0c.045-.189.092-.37.141-.548a16.394,16.394,0,0,1,19.6-11.6l.016,0,.026.006A16.494,16.494,0,0,1,327.761,806.536Z" transform="translate(-304.103 -794.443)" fill="#d80c1b"/>
      <path id="Path_2915" data-name="Path 2915" d="M344.106,836.08l.741-.059-2,1.648-.047.014a7.214,7.214,0,0,0-4.424,3.646l-.023.044-1.985,1.636.2-.715A8.562,8.562,0,0,1,344.106,836.08Z" transform="translate(-328.224 -817.698)" fill="#d80c1b"/>
      <path id="Path_2916" data-name="Path 2916" d="M326.648,795.525a18.951,18.951,0,0,1,3.259,1.447l.3.167-1.093.9-.138-.075a17.682,17.682,0,0,0-23.717,6.767c-.274.477-.528.972-.754,1.47l-.449.987.006-2.98.031-.054c.246-.432.506-.85.773-1.242a19.039,19.039,0,0,1,20.162-7.857Z" transform="translate(-304.052 -786.67)" fill="#d80c1b"/>
    </g>
  </g>
  <g id="Group_5907" data-name="Group 5907" transform="translate(1.128 4.912)">
    <g id="Group_5900" data-name="Group 5900" transform="translate(26.365 21.486)">
      <path id="Path_2917" data-name="Path 2917" d="M413.144,868.534c0-.159,0-.318-.011-.475C413.141,868.217,413.144,868.375,413.144,868.534Z" transform="translate(-413.133 -868.059)" fill="#051a2f"/>
      <path id="Path_2918" data-name="Path 2918" d="M413.144,868.534c0-.159,0-.318-.011-.475C413.141,868.217,413.144,868.375,413.144,868.534Z" transform="translate(-413.133 -868.059)" fill="#051a2f"/>
    </g>
    <g id="Group_5901" data-name="Group 5901" transform="translate(26.365 21.486)">
      <path id="Path_2919" data-name="Path 2919" d="M413.133,868.059c.007.158.011.316.011.475C413.144,868.375,413.141,868.217,413.133,868.059Z" transform="translate(-413.133 -868.059)" fill="#051a2f"/>
    </g>
    <g id="Group_5902" data-name="Group 5902" transform="translate(0 16.064)">
      <path id="Path_2920" data-name="Path 2920" d="M310.246,878.713c-.123.344-.253.693-.387,1.037-.122.314-.25.634-.392.978l-.2.481-.228-.467c-.155-.318-.306-.658-.449-1.012l-.064-.158,2.007-1.662Z" transform="translate(-308.529 -870.004)" fill="#051a2f"/>
      <path id="Path_2921" data-name="Path 2921" d="M325.18,862.2a38.917,38.917,0,0,1-1.746,4.194c-.125.254-.242.485-.357.7l-.142.271-.225-.208c-.226-.21-.449-.429-.662-.651l-.115-.119.075-.148c.145-.287.254-.507.354-.716.491-1.023.957-2.133,1.383-3.3a52.271,52.271,0,0,0,1.681-5.628v-.027l.013-.029c.086-.352.168-.7.253-1.066v0l.006-.027c.03-.128.056-.226.082-.319l.02-.069,2.292-1.9-.506,1a7.228,7.228,0,0,0-.565,1.521l-.007.026-.015.061A60.191,60.191,0,0,1,325.18,862.2Z" transform="translate(-318.555 -851.496)" fill="#051a2f"/>
      <path id="Path_2922" data-name="Path 2922" d="M316.61,872.432c-.183.447-.38.906-.586,1.362-.112.251-.234.513-.36.778l-.013.039-.23.231-.162-.216c-.193-.258-.377-.516-.543-.768l-.013-.019-.028-.041-.069-.108.053-.116c.134-.291.254-.56.368-.822.045-.1.09-.206.133-.31.421-.983.813-2,1.167-3.039h0l.013-.036c.2-.587.39-1.186.564-1.78l.02-.069,1.764-1.461-.182.7c-.141.545-.294,1.089-.453,1.617v.021l-.018.037C317.626,869.781,317.147,871.128,316.61,872.432Z" transform="translate(-313.075 -861.138)" fill="#051a2f"/>
      <path id="Path_2923" data-name="Path 2923" d="M346.81,869.382q-.823,2.1-1.812,4.127c-.119.247-.238.486-.352.71l-.073.143-.16-.017c-.28-.029-.57-.067-.864-.114l-.32-.051.15-.287c.111-.216.22-.432.347-.69.647-1.309,1.25-2.67,1.792-4.044s1.029-2.769,1.452-4.165c.207-.685.4-1.382.584-2.074.189-.73.367-1.478.528-2.224a1.952,1.952,0,0,0-2.93-2.107,1.936,1.936,0,0,0-.871,1.212c-.292,1.384-.652,2.778-1.066,4.139-.117.384-.241.775-.381,1.2a48.829,48.829,0,0,1-2.967,7.014c-.121.237-.236.454-.35.662l-.1.192-.2-.092c-.273-.126-.543-.26-.8-.4l-.209-.111.114-.207c.1-.188.21-.389.347-.652a47.394,47.394,0,0,0,2.8-6.557c.111-.325.221-.662.329-1l.052-.164c.439-1.41.816-2.852,1.12-4.288v-.006l.007-.029a3.278,3.278,0,1,1,6.38,1.51c-.138.63-.288,1.258-.442,1.862-.191.747-.4,1.508-.629,2.26Q347.634,867.278,346.81,869.382Z" transform="translate(-330.723 -854.333)" fill="#051a2f"/>
      <path id="Path_2924" data-name="Path 2924" d="M352.739,872.913a51.958,51.958,0,0,1-3.21,7.918c-.117.232-.233.458-.346.672a.318.318,0,0,1-.016.03l-.09.156-.174-.048c-.281-.076-.573-.165-.87-.266l-.269-.09.14-.246.007-.013c.118-.222.233-.444.342-.66a50.38,50.38,0,0,0,3.126-7.594c.164-.514.32-1.033.464-1.542.313-1.1.591-2.222.828-3.347a.669.669,0,0,1,1.305.29c-.213,1.007-.459,2.019-.73,3.006C353.085,871.772,352.913,872.356,352.739,872.913Z" transform="translate(-337.875 -862.116)" fill="#051a2f"/>
      <path id="Path_2925" data-name="Path 2925" d="M344.66,857.336a58.742,58.742,0,0,1-3.072,8.364c-.108.239-.226.492-.359.773l-.058.122-.136.01c-.337.025-.686.04-1.035.044l-.379,0,.166-.34c.126-.26.242-.5.354-.742.553-1.181,1.075-2.4,1.551-3.632.6-1.548,1.138-3.14,1.6-4.733.251-.864.483-1.738.69-2.6l.044-.179c.07-.293.14-.6.21-.915a4.573,4.573,0,0,0-1.625-4.647l-.072-.056a4.575,4.575,0,0,0-7.208,2.606,46.29,46.29,0,0,1-1.44,5.285l-.054.159c-.059.172-.117.341-.169.488a46.279,46.279,0,0,1-2.469,5.716c-.108.212-.227.437-.351.669l-.122.227-.214-.144c-.234-.158-.467-.323-.69-.491l-.16-.12.094-.176c.115-.218.231-.443.345-.671a45.6,45.6,0,0,0,2.378-5.626q.091-.259.177-.519a45.735,45.735,0,0,0,1.373-5.1l.009-.036a5.914,5.914,0,0,1,7.109-4.374,6,6,0,0,1,.769.238,5.905,5.905,0,0,1,3.748,6.172,5.805,5.805,0,0,1-.122.706c-.049.227-.1.464-.163.721C345.164,855.478,344.922,856.418,344.66,857.336Z" transform="translate(-324.336 -846.545)" fill="#051a2f"/>
    </g>
    <g id="Group_5903" data-name="Group 5903" transform="translate(26.365 21.486)">
      <path id="Path_2926" data-name="Path 2926" d="M413.144,868.534c0-.159,0-.318-.011-.475C413.141,868.217,413.144,868.375,413.144,868.534Z" transform="translate(-413.133 -868.059)" fill="#051a2f"/>
      <path id="Path_2927" data-name="Path 2927" d="M413.144,868.534c0-.159,0-.318-.011-.475C413.141,868.217,413.144,868.375,413.144,868.534Z" transform="translate(-413.133 -868.059)" fill="#051a2f"/>
    </g>
    <g id="Group_5904" data-name="Group 5904" transform="translate(27.49 18.851)">
      <path id="Path_2928" data-name="Path 2928" d="M417.6,857.6l.009.034h0C417.6,857.626,417.6,857.614,417.6,857.6Z" transform="translate(-417.598 -857.603)" fill="#051a2f"/>
    </g>
    <g id="Group_5905" data-name="Group 5905" transform="translate(12.362)">
      <path id="Path_2929" data-name="Path 2929" d="M369.211,844.676c0,.064,0,.129,0,.192s0,.115-.006.174-.007.142-.012.215c0,.049-.007.1-.012.154,0,.023,0,.045-.007.069,0,.045-.009.09-.013.136,0,.014,0,.029-.006.044v.008c-.007.058-.013.115-.022.173-.018.128-.039.259-.062.388-.01.055-.022.111-.033.168,0,.026-.01.051-.016.078-.012.054-.025.112-.038.17-.144.649-.3,1.314-.473,1.973-.077.3-.16.618-.248.937-.356,1.308-.756,2.61-1.2,3.9s-.923,2.564-1.443,3.814c-.118.287-.243.583-.373.879l-.044.1-.108.03c-.351.1-.716.185-1.084.259l-.446.091.186-.415c.12-.268.242-.548.365-.832a61.9,61.9,0,0,0,2.787-7.951c.184-.666.356-1.333.511-1.983.091-.378.177-.75.256-1.107l.008-.033c.037-.163.069-.328.094-.489.007-.036.012-.069.016-.1s.01-.068.014-.1v-.009c.014-.1.026-.209.035-.321,0-.058.01-.111.012-.163l0-.038c0-.064.006-.125.008-.186a7.127,7.127,0,0,0-.456-2.74c-.026-.069-.053-.138-.081-.206-.055-.133-.115-.27-.18-.4h0c-.046-.094-.1-.19-.15-.295l0,0-.053-.1q-.054-.1-.11-.188c-.04-.065-.079-.129-.118-.191s-.069-.106-.107-.16-.061-.087-.092-.129c-.04-.058-.079-.11-.118-.161-.055-.073-.113-.146-.171-.217s-.121-.146-.178-.208-.1-.112-.15-.165-.1-.106-.154-.158c-.106-.106-.216-.208-.325-.3l-.105-.09h0l-.066-.055c-.057-.047-.115-.094-.173-.138-.153-.118-.306-.228-.455-.325a7.181,7.181,0,0,0-5.95-.894l-1.086.316,2.314-1.915.073-.006a8.3,8.3,0,0,1,.944-.026,8.685,8.685,0,0,1,1.7.221h0l.026.006a8.534,8.534,0,0,1,6.577,8.3Z" transform="translate(-357.577 -822.701)" fill="#051a2f"/>
      <path id="Path_2930" data-name="Path 2930" d="M410.2,811.21l.03.053v3.14l-.448-1.028c-.222-.509-.474-1.018-.75-1.513-.108-.193-.222-.39-.35-.6A17.714,17.714,0,0,0,402.167,805l-.236-.129-.308-.164,1.1-.909.139.076.164.092.055.031a19.175,19.175,0,0,1,6.02,5.474l.044.061c.094.133.19.273.285.415C409.7,810.354,409.954,810.778,410.2,811.21Z" transform="translate(-390.522 -798.51)" fill="#051a2f"/>
      <path id="Path_2931" data-name="Path 2931" d="M422.969,792.2l.074.069v1.865l-.4-.4c-.238-.239-.491-.482-.752-.721l-.2-.177a22.694,22.694,0,0,0-2.589-2l-.042-.028-.047-.03-.259-.175,1.064-.881.21.143a24.347,24.347,0,0,1,1.99,1.5l.178.151C422.458,791.736,422.717,791.967,422.969,792.2Z" transform="translate(-403.339 -787.979)" fill="#051a2f"/>
      <path id="Path_2932" data-name="Path 2932" d="M403.284,821.532a16.261,16.261,0,0,1,.585,4.343l0,.1a16.483,16.483,0,0,1-1.214,4.2l-.009.02,0,.011c-.03.069-.062.138-.094.206l-.008.016-.01.023-.032.068c-.044.093-.087.185-.133.278l-.012.026c-.074.149-.153.3-.232.449l-.924,1.711.492-1.882c.149-.573.3-1.165.436-1.76.033-.132.064-.264.1-.409l.014-.066a15.165,15.165,0,0,0,.326-2.5c.006-.113.009-.226.013-.338a15.075,15.075,0,0,0-.225-2.952l0-.021a15.091,15.091,0,0,0-8.308-10.939c-.1-.048-.208-.1-.322-.149l-.344-.154.992-.821.134.062c.1.048.206.1.308.15a16.345,16.345,0,0,1,8.048,8.987l.015.04C403.022,820.652,403.163,821.091,403.284,821.532Z" transform="translate(-384.348 -803.886)" fill="#051a2f"/>
      <path id="Path_2933" data-name="Path 2933" d="M393.709,832.15c-.012.256-.031.514-.058.764,0,.041-.009.083-.013.125l0,.023c-.018.152-.037.3-.059.452-.016.106-.034.213-.051.319l-.031.168c-.006.035-.013.072-.021.11s-.019.1-.031.157c-.007.036-.015.073-.022.109h.012l-.067.287c-.351,1.516-.753,3.036-1.194,4.518-.168.565-.341,1.126-.515,1.667l-.017.054-.041.041a16.478,16.478,0,0,1-1.327,1.17l-.626.495.259-.754c.157-.453.311-.916.46-1.377.644-1.993,1.213-4.052,1.689-6.119.075-.317.137-.641.186-.964.009-.047.015-.092.021-.136.015-.1.026-.191.036-.273,0-.04.009-.075.013-.109l0-.028h0l0-.022c0-.042.009-.078.012-.112.019-.189.033-.372.041-.551.005-.1.01-.207.013-.31,0-.063,0-.125,0-.187a12.256,12.256,0,0,0-.058-1.369c-.008-.085-.016-.169-.027-.252l0-.016q-.014-.119-.031-.238c-.012-.09-.026-.176-.04-.263-.04-.248-.087-.5-.142-.74-.029-.129-.059-.255-.091-.377h0l-.009-.034-.03-.115-.047-.17,0-.007c-.008-.032-.018-.065-.028-.1-.032-.11-.065-.213-.1-.318-.118-.365-.255-.728-.405-1.076-.043-.1-.086-.2-.132-.295a12.643,12.643,0,0,0-.757-1.4c-.065-.1-.132-.207-.209-.321s-.143-.21-.218-.315c-.058-.081-.118-.161-.178-.242s-.11-.144-.167-.216c-.075-.1-.156-.2-.241-.3-.072-.086-.153-.178-.251-.29-.078-.086-.162-.179-.26-.281-.044-.048-.089-.094-.134-.14s-.087-.089-.132-.132a12.339,12.339,0,0,0-4.483-2.84c-.143-.053-.3-.1-.45-.154l-.406-.131,1.222-1.011.126.046c.143.052.285.107.421.162a13.714,13.714,0,0,1,4.675,3.139c.136.139.262.273.382.408.194.216.382.438.557.66.118.148.233.3.341.448.217.3.423.605.613.916.074.122.15.249.224.379a13.745,13.745,0,0,1,1.666,4.82c.019.127.035.256.051.384v0a13.822,13.822,0,0,1,.093,1.824v.03c0,.023,0,.046,0,.069,0,.058,0,.123-.006.188v.03C393.712,832.069,393.711,832.109,393.709,832.15Z" transform="translate(-376.856 -809.524)" fill="#051a2f"/>
      <path id="Path_2934" data-name="Path 2934" d="M383.455,837.116c0-.026,0-.051,0-.076-.008-.177-.019-.337-.033-.491-.006-.062-.012-.122-.018-.181s-.013-.119-.02-.18c-.006-.041-.011-.083-.016-.125h0c-.014-.108-.03-.214-.048-.32s-.037-.214-.058-.319c-.01-.052-.02-.1-.032-.158-.022-.105-.045-.21-.07-.312-.017-.073-.034-.143-.053-.216s-.034-.123-.051-.184-.036-.126-.054-.19-.038-.126-.058-.187-.03-.1-.046-.142c-.058-.177-.121-.352-.186-.517-.018-.048-.038-.1-.056-.142-.043-.107-.087-.211-.133-.317-.04-.091-.081-.181-.123-.27-.075-.157-.155-.317-.238-.475-.022-.041-.044-.081-.066-.121-.037-.067-.073-.133-.111-.2-.021-.038-.044-.075-.062-.106s-.038-.065-.058-.1l-.012-.02c-.039-.066-.08-.13-.119-.192-.016-.027-.035-.054-.051-.079s-.017-.028-.023-.036c-.033-.051-.066-.1-.1-.15-.007-.012-.015-.023-.022-.034-.043-.063-.086-.125-.13-.187l-.035-.049c-.1-.138-.206-.281-.315-.418-.013-.018-.028-.037-.04-.05-.051-.065-.1-.128-.153-.188s-.083-.1-.125-.147l-.032-.036c-.013-.016-.027-.031-.041-.047l-.016-.018c-.054-.061-.108-.122-.162-.18-.079-.085-.152-.163-.225-.237l-.143-.143c-.1-.1-.215-.208-.341-.323l-.168-.148c-.164-.143-.337-.284-.53-.433l-.175-.131a11.05,11.05,0,0,0-3.731-1.783c-.1-.027-.206-.053-.311-.078s-.183-.041-.275-.061l-.11-.022-1.339,1.109.524.074c.211.03.425.067.635.11.085.017.174.037.266.058a9.733,9.733,0,0,1,3.659,1.713c.186.141.372.291.552.449q.107.093.21.189c.069.064.137.13.2.2a9.876,9.876,0,0,1,2.944,7c0,.049,0,.1,0,.147v.012c0,.049,0,.1,0,.146l-.007.174c0,.053-.005.106-.009.164,0,.029,0,.061-.006.09l0,.028c0,.025,0,.051-.006.084s0,.037-.005.055v.008c0,.025,0,.051-.007.076l-.006.046c0,.044-.009.089-.013.129l0,.021c0,.036-.009.072-.015.114s-.008.06-.013.093l-.012.079,0,.024c0,.028-.009.057-.013.085l0,.012c-.006.044-.014.086-.023.134s-.016.087-.025.135c-.013.066-.026.132-.041.2s-.029.133-.045.2a67.737,67.737,0,0,1-2.81,9.293c-.142.369-.269.693-.39.992l-.217.533.527-.231c.38-.167.757-.349,1.123-.543h.1l.058-.15c.129-.338.263-.693.407-1.087a70.245,70.245,0,0,0,2.5-8.5c.021-.087.04-.176.059-.263.007-.035.013-.069.019-.1.025-.123.047-.246.068-.376.006-.034.01-.068.015-.1.016-.095.029-.192.041-.286v0c.009-.064.015-.125.022-.182s.014-.131.02-.192h0c0-.044.008-.086.011-.126s.007-.088.01-.133l.012-.185c0-.056,0-.111.007-.167v-.012a.35.35,0,0,0,0-.045c0-.113.006-.231.006-.372S383.46,837.246,383.455,837.116Zm-.237-.066c.008.158.011.316.011.475C383.229,837.366,383.225,837.208,383.218,837.05Z" transform="translate(-369.215 -815.564)" fill="#051a2f"/>
      <path id="Path_2935" data-name="Path 2935" d="M429.326,783.645v1.732l-.383-.314c-.186-.154-.373-.3-.553-.442l-.212-.161-.118-.088c-.211-.16-.43-.319-.652-.474l-.017-.012,0,0-.23-.161.911-.8.133-.115.149.1c.037.025.074.052.111.08.285.206.535.395.773.581Z" transform="translate(-409.622 -782.811)" fill="#051a2f"/>
      <path id="Path_2936" data-name="Path 2936" d="M416.519,801.135l.055.065v2.28l-.421-.561c-.242-.323-.495-.639-.75-.938-.088-.1-.178-.206-.268-.308a20.284,20.284,0,0,0-4.582-3.844l-.043-.026-.115-.069-.285-.17,1.146-.949.277.175a21.549,21.549,0,0,1,3.969,3.221l.066.069.181.191C416.013,800.549,416.271,800.841,416.519,801.135Z" transform="translate(-396.869 -793.136)" fill="#051a2f"/>
    </g>
    <g id="Group_5906" data-name="Group 5906" transform="translate(29.869 0.115)">
      <path id="Path_2937" data-name="Path 2937" d="M427.068,784.066l.23.161-.261-.173.239-.2.7-.582Z" transform="translate(-427.036 -783.269)" fill="#051a2f"/>
    </g>
  </g>
</svg>
