<svg xmlns="http://www.w3.org/2000/svg" width="1439.53" height="225.001" viewBox="0 0 1439.53 225.001">
  <path id="Shape" d="M1439.53,225H1304.546l-32.971-.228h-97.357l129.407-84.555a70.551,70.551,0,0,1,86.206,7.013,71.412,71.412,0,0,1,11.753,13.936l37.946,58.792V225h0ZM203.047,225H74.158a4.293,4.293,0,0,1,.151-5.651,4.251,4.251,0,0,1,6.35,5.65H203.047ZM49.021,225H37.473a4.262,4.262,0,0,1,3.979-5.745,4.21,4.21,0,0,1,2.892,1.147,4.274,4.274,0,0,1,1.087,4.6h3.59ZM9.729,225H1.26a4.241,4.241,0,1,1,8.469,0Zm13.116-14.669a4.211,4.211,0,0,1-2.891-1.147,4.291,4.291,0,0,1-.21-6.03,4.253,4.253,0,1,1,3.1,7.177ZM58.8,209.066a4.213,4.213,0,0,1-2.891-1.145,4.291,4.291,0,0,1-.209-6.031,4.252,4.252,0,1,1,3.1,7.176ZM94.759,207.8a4.211,4.211,0,0,1-2.891-1.146,4.29,4.29,0,0,1-.209-6.03,4.252,4.252,0,1,1,3.1,7.176ZM4.238,192.873a4.208,4.208,0,0,1-2.891-1.147,4.29,4.29,0,0,1-.21-6.03,4.252,4.252,0,1,1,3.1,7.177ZM40.2,191.609a4.216,4.216,0,0,1-2.892-1.145,4.291,4.291,0,0,1-.209-6.031,4.253,4.253,0,1,1,3.1,7.176Zm35.956-1.264a4.206,4.206,0,0,1-2.89-1.146,4.267,4.267,0,0,1,2.893-7.386,4.254,4.254,0,0,1,4.237,4.118,4.256,4.256,0,0,1-4.24,4.414ZM21.588,174.151a4.214,4.214,0,0,1-2.891-1.145,4.267,4.267,0,0,1,2.893-7.387,4.214,4.214,0,0,1,2.891,1.146,4.291,4.291,0,0,1,.209,6.031A4.246,4.246,0,0,1,21.588,174.151Zm35.959-1.262a4.249,4.249,0,0,1-4.235-4.117,4.253,4.253,0,0,1,4.236-4.416,4.251,4.251,0,0,1,4.235,4.118,4.251,4.251,0,0,1-4.236,4.415ZM38.94,155.431a4.266,4.266,0,1,1,2.893-7.387,4.289,4.289,0,0,1,.21,6.03A4.241,4.241,0,0,1,38.94,155.431ZM202.831,131.9a70.148,70.148,0,0,1-39.534-12.19L.212,0H330.657L261.6,100.484A70.672,70.672,0,0,1,202.831,131.9ZM1344.806,80.217a4.212,4.212,0,0,1-2.892-1.146,4.292,4.292,0,0,1-.209-6.031,4.222,4.222,0,0,1,5.992-.211,4.29,4.29,0,0,1,.211,6.03A4.245,4.245,0,0,1,1344.806,80.217ZM1326.2,62.759a4.208,4.208,0,0,1-2.888-1.146,4.291,4.291,0,0,1-.21-6.03,4.252,4.252,0,1,1,3.1,7.176Zm35.96-1.263a4.251,4.251,0,0,1-4.235-4.119,4.25,4.25,0,0,1,4.237-4.414,4.21,4.21,0,0,1,2.89,1.146,4.29,4.29,0,0,1,.21,6.03A4.244,4.244,0,0,1,1362.156,61.5ZM1307.593,45.3a4.257,4.257,0,1,1,3.1-1.358A4.213,4.213,0,0,1,1307.593,45.3Zm35.956-1.263h0a4.2,4.2,0,0,1-2.885-1.145,4.29,4.29,0,0,1-.21-6.03,4.252,4.252,0,1,1,3.1,7.177Zm35.959-1.265a4.252,4.252,0,0,1-4.237-4.117,4.256,4.256,0,0,1,4.239-4.415,4.211,4.211,0,0,1,2.891,1.146,4.266,4.266,0,0,1-2.892,7.386Zm-90.522-14.93a4.252,4.252,0,0,1-4.236-4.117,4.255,4.255,0,0,1,4.238-4.415,4.211,4.211,0,0,1,2.891,1.146,4.267,4.267,0,0,1-2.892,7.387Zm35.958-1.264a4.211,4.211,0,0,1-2.892-1.147,4.29,4.29,0,0,1-.209-6.029,4.222,4.222,0,0,1,5.993-.211,4.291,4.291,0,0,1,.209,6.031A4.242,4.242,0,0,1,1324.944,26.581Zm35.957-1.263a4.266,4.266,0,1,1,2.893-7.386,4.291,4.291,0,0,1,.21,6.03A4.243,4.243,0,0,1,1360.9,25.317Zm35.958-1.264a4.213,4.213,0,0,1-2.892-1.146,4.29,4.29,0,0,1-.209-6.03,4.222,4.222,0,0,1,5.992-.211,4.29,4.29,0,0,1,.211,6.03A4.243,4.243,0,0,1,1396.859,24.053ZM1306.337,9.122a4.25,4.25,0,0,1-4.236-4.117,4.235,4.235,0,1,1,4.236,4.117Zm35.958-1.263a4.212,4.212,0,0,1-2.892-1.146,4.283,4.283,0,0,1,.6-6.714h4.578a4.488,4.488,0,0,1,.6.473,4.283,4.283,0,0,1,.21,6.029A4.242,4.242,0,0,1,1342.294,7.86ZM1378.251,6.6a4.2,4.2,0,0,1-2.89-1.147A4.273,4.273,0,0,1,1374.7,0h7.108a4.266,4.266,0,0,1-3.556,6.6Z" transform="translate(-0.001 0.001)" fill="#fff" opacity="0.1"/>
</svg>
