<svg xmlns="http://www.w3.org/2000/svg" width="133.288" height="40.308" viewBox="0 0 133.288 40.308">
  <g id="Component_135_1" data-name="Component 135 – 1" transform="translate(0 0)">
    <g id="Group_5921" data-name="Group 5921">
      <g id="Group_5912" data-name="Group 5912" transform="translate(0 0)">
        <g id="Group_5910" data-name="Group 5910" transform="translate(27.995 22.934)">
          <g id="Group_5909" data-name="Group 5909">
            <g id="Group_5908" data-name="Group 5908">
              <path id="Path_2938" data-name="Path 2938" d="M418.24,856.646c-.027-.106-.056-.213-.087-.319C418.184,856.433,418.212,856.539,418.24,856.646Z" transform="translate(-417.933 -856.262)" fill="#d80c1b"/>
              <path id="Path_2939" data-name="Path 2939" d="M417.347,856.5c-.027-.1-.055-.209-.085-.313l.44-.128c.035.12.066.238.089.327Z" transform="translate(-417.262 -856.064)" fill="#d80c1b"/>
            </g>
          </g>
        </g>
        <g id="Group_5911" data-name="Group 5911">
          <path id="Path_2940" data-name="Path 2940" d="M336.023,768.449l-1.02.889-.146-.1-.018-.012-.007-.005a24.866,24.866,0,0,0-8.639-3.869l-.241-.056a25.158,25.158,0,0,0-11.439.057,24.88,24.88,0,0,0-9.231,4.355c-.258.2-.508.39-.74.581l-.376.307,0-1.7.089-.069c.254-.2.508-.387.754-.562.119-.087.249-.18.4-.28a26.307,26.307,0,0,1,12.7-4.571l.031,0a26.523,26.523,0,0,1,4.527,0l.021,0c.257.022.513.049.768.079q.192.022.384.047l.141.019q.464.063.927.144A26.267,26.267,0,0,1,335.393,768c.135.092.268.187.4.281Z" transform="translate(-304.139 -763.321)" fill="#d80c1b"/>
          <path id="Path_2941" data-name="Path 2941" d="M333.7,777.84l.254.172-1.044.861-.142-.093a22.3,22.3,0,0,0-7.053-3.082l-.018.017-.121-.029a22.489,22.489,0,0,0-20.3,5.225c-.253.228-.5.464-.74.7l-.392.391,0-1.842.073-.068c.239-.222.494-.447.755-.667.121-.1.243-.207.373-.311a23.605,23.605,0,0,1,14.128-5.328A23.845,23.845,0,0,1,333.7,777.84Z" transform="translate(-304.115 -771.185)" fill="#d80c1b"/>
          <path id="Path_2942" data-name="Path 2942" d="M336.679,826l.467.1-1.277,1.053-.1-.015a9.634,9.634,0,0,0-10.716,7.31c-.141.659-.3,1.317-.466,1.949l-.019.071-1.768,1.457.213-.719c.295-.992.556-2.009.778-3.024A10.948,10.948,0,0,1,336.679,826Z" transform="translate(-318.164 -810.326)" fill="#d80c1b"/>
          <path id="Path_2943" data-name="Path 2943" d="M331.6,787.236l.27.169-1.118.922-.139-.084a20.041,20.041,0,0,0-3.186-1.556,19.928,19.928,0,0,0-22.178,5.567c-.257.3-.505.6-.739.907l-.413.54.005-2.143.054-.064c.253-.3.508-.579.756-.842a21.262,21.262,0,0,1,16.717-6.608A21.375,21.375,0,0,1,331.6,787.236Z" transform="translate(-304.087 -778.89)" fill="#d80c1b"/>
          <path id="Path_2944" data-name="Path 2944" d="M328.243,816.178l.375.138-1.182.973-.119-.038c-.309-.1-.627-.19-.947-.266a12.219,12.219,0,0,0-14.7,9.053,44.294,44.294,0,0,1-1.606,5.527l-.021.059-1.489,1.227-.2-.5.033-.083c.147-.377.278-.728.4-1.072a45.033,45.033,0,0,0,1.59-5.461A13.522,13.522,0,0,1,326.67,815.7,13.673,13.673,0,0,1,328.243,816.178Z" transform="translate(-307.296 -802.471)" fill="#d80c1b"/>
          <path id="Path_2945" data-name="Path 2945" d="M327.314,806.506l.325.155-.966.8-.13-.059a14.881,14.881,0,0,0-2.9-.969,14.775,14.775,0,0,0-17.634,11.214c-.2.851-.417,1.7-.653,2.511-.16.556-.335,1.12-.52,1.679l-.276.833-.166-.862a16.268,16.268,0,0,1-.268-2.148l0-.038.011-.037c.21-.749.4-1.514.578-2.273l0-.005,0-.013v0c.044-.185.09-.363.138-.537a16.084,16.084,0,0,1,19.229-11.377l.015,0,.025.005A16.18,16.18,0,0,1,327.314,806.506Z" transform="translate(-304.103 -794.641)" fill="#d80c1b"/>
          <path id="Path_2946" data-name="Path 2946" d="M343.96,836.079l.727-.058-1.962,1.617-.046.014a7.078,7.078,0,0,0-4.34,3.577l-.022.043-1.948,1.605.2-.7A8.4,8.4,0,0,1,343.96,836.079Z" transform="translate(-328.378 -818.044)" fill="#d80c1b"/>
          <path id="Path_2947" data-name="Path 2947" d="M326.221,795.506a18.6,18.6,0,0,1,3.2,1.42l.291.163-1.073.885-.135-.073a17.348,17.348,0,0,0-23.269,6.639c-.269.468-.518.953-.74,1.443l-.44.969.006-2.923.031-.053c.242-.424.5-.834.758-1.219a18.68,18.68,0,0,1,19.782-7.709Z" transform="translate(-304.052 -786.819)" fill="#d80c1b"/>
        </g>
      </g>
      <g id="Group_5920" data-name="Group 5920" transform="translate(1.107 4.82)">
        <g id="Group_5913" data-name="Group 5913" transform="translate(25.867 21.08)">
          <path id="Path_2948" data-name="Path 2948" d="M413.144,868.525c0-.156,0-.312-.011-.466C413.141,868.214,413.144,868.369,413.144,868.525Z" transform="translate(-413.133 -868.059)" fill="#051a2f"/>
          <path id="Path_2949" data-name="Path 2949" d="M413.144,868.525c0-.156,0-.312-.011-.466C413.141,868.214,413.144,868.369,413.144,868.525Z" transform="translate(-413.133 -868.059)" fill="#051a2f"/>
        </g>
        <g id="Group_5914" data-name="Group 5914" transform="translate(25.867 21.08)">
          <path id="Path_2950" data-name="Path 2950" d="M413.133,868.059c.007.155.011.31.011.466C413.144,868.369,413.141,868.214,413.133,868.059Z" transform="translate(-413.133 -868.059)" fill="#051a2f"/>
        </g>
        <g id="Group_5915" data-name="Group 5915" transform="translate(0 15.76)">
          <path id="Path_2951" data-name="Path 2951" d="M310.214,878.7c-.121.338-.249.68-.379,1.017-.12.308-.245.622-.384.959l-.194.472-.224-.458c-.152-.312-.3-.646-.44-.993l-.063-.155,1.969-1.63Z" transform="translate(-308.529 -870.153)" fill="#051a2f"/>
          <path id="Path_2952" data-name="Path 2952" d="M325.119,862.033a38.179,38.179,0,0,1-1.713,4.115c-.123.249-.238.476-.35.691l-.139.266-.22-.2c-.222-.206-.44-.421-.65-.638l-.113-.117.073-.145c.142-.281.249-.5.347-.7.482-1,.939-2.093,1.357-3.238a51.277,51.277,0,0,0,1.649-5.522v-.027l.013-.028c.084-.345.165-.687.249-1.046v0l.006-.027c.03-.125.055-.222.08-.313l.02-.068,2.248-1.862-.5.981a7.091,7.091,0,0,0-.554,1.492l-.007.026-.014.06A59.049,59.049,0,0,1,325.119,862.033Z" transform="translate(-318.619 -851.527)" fill="#051a2f"/>
          <path id="Path_2953" data-name="Path 2953" d="M316.572,872.312c-.18.439-.373.888-.575,1.336-.11.246-.229.5-.353.764l-.013.038-.225.227-.159-.212c-.19-.253-.369-.507-.533-.754l-.012-.018-.027-.041-.067-.106.052-.114c.132-.285.249-.549.362-.807.044-.1.088-.2.13-.3.413-.964.8-1.966,1.145-2.982h0l.012-.036c.2-.576.382-1.163.553-1.747l.02-.067,1.73-1.433-.178.686c-.138.535-.288,1.068-.445,1.586v.021l-.018.037C317.569,869.711,317.1,871.032,316.572,872.312Z" transform="translate(-313.104 -861.231)" fill="#051a2f"/>
          <path id="Path_2954" data-name="Path 2954" d="M346.647,869.148q-.807,2.061-1.777,4.049c-.117.242-.234.477-.345.7l-.071.141-.157-.017c-.274-.028-.56-.066-.848-.112l-.314-.05.147-.281c.109-.212.216-.424.34-.677.635-1.284,1.226-2.619,1.758-3.968s1.009-2.716,1.424-4.086c.2-.672.4-1.356.573-2.035.186-.716.36-1.45.518-2.182a1.915,1.915,0,0,0-2.875-2.067,1.9,1.9,0,0,0-.855,1.189c-.287,1.358-.639,2.726-1.046,4.061-.115.377-.237.761-.374,1.174a47.9,47.9,0,0,1-2.911,6.882c-.119.232-.232.445-.343.65l-.1.188-.195-.09c-.268-.124-.533-.255-.788-.391l-.205-.109.112-.2c.1-.185.206-.382.34-.64a46.5,46.5,0,0,0,2.748-6.433c.109-.319.217-.65.323-.984l.051-.161c.431-1.383.8-2.8,1.1-4.207v-.005l.007-.028a3.216,3.216,0,1,1,6.26,1.481c-.135.618-.282,1.234-.434,1.826-.187.733-.394,1.479-.617,2.217Q347.456,867.083,346.647,869.148Z" transform="translate(-330.864 -854.383)" fill="#051a2f"/>
          <path id="Path_2955" data-name="Path 2955" d="M352.645,872.808a50.982,50.982,0,0,1-3.149,7.769c-.115.228-.228.45-.34.659a.313.313,0,0,1-.015.03l-.089.153-.171-.047c-.275-.075-.562-.162-.854-.261l-.264-.089.138-.241.007-.013c.115-.218.228-.436.336-.648a49.422,49.422,0,0,0,3.067-7.451c.16-.5.314-1.013.456-1.513.307-1.076.58-2.18.813-3.284a.656.656,0,0,1,1.281.284c-.209.988-.45,1.981-.716,2.949C352.984,871.689,352.816,872.262,352.645,872.808Z" transform="translate(-338.062 -862.215)" fill="#051a2f"/>
          <path id="Path_2956" data-name="Path 2956" d="M344.377,857.132a57.632,57.632,0,0,1-3.014,8.206c-.106.235-.222.483-.352.758l-.057.12-.133.01c-.331.025-.673.039-1.015.043l-.371,0,.163-.333c.124-.255.238-.492.347-.728.543-1.158,1.055-2.357,1.522-3.563.588-1.519,1.117-3.081,1.573-4.644.246-.848.474-1.7.677-2.548l.043-.176c.069-.287.138-.589.206-.9a4.487,4.487,0,0,0-1.594-4.559l-.07-.055a4.488,4.488,0,0,0-7.072,2.557,45.419,45.419,0,0,1-1.413,5.186l-.053.156c-.057.169-.115.334-.166.478a45.4,45.4,0,0,1-2.423,5.608c-.106.208-.223.429-.345.656l-.12.223-.21-.141c-.229-.155-.458-.317-.677-.482l-.157-.118.092-.173c.113-.214.226-.434.339-.658a44.753,44.753,0,0,0,2.333-5.52q.089-.254.174-.509a44.887,44.887,0,0,0,1.347-5l.008-.035a5.8,5.8,0,0,1,6.975-4.291,5.876,5.876,0,0,1,.755.233,5.794,5.794,0,0,1,3.677,6.055,5.7,5.7,0,0,1-.12.693c-.048.223-.1.456-.16.707C344.871,855.309,344.633,856.231,344.377,857.132Z" transform="translate(-324.437 -846.545)" fill="#051a2f"/>
        </g>
        <g id="Group_5916" data-name="Group 5916" transform="translate(25.867 21.08)">
          <path id="Path_2957" data-name="Path 2957" d="M413.144,868.525c0-.156,0-.312-.011-.466C413.141,868.214,413.144,868.369,413.144,868.525Z" transform="translate(-413.133 -868.059)" fill="#051a2f"/>
          <path id="Path_2958" data-name="Path 2958" d="M413.144,868.525c0-.156,0-.312-.011-.466C413.141,868.214,413.144,868.369,413.144,868.525Z" transform="translate(-413.133 -868.059)" fill="#051a2f"/>
        </g>
        <g id="Group_5917" data-name="Group 5917" transform="translate(26.971 18.495)">
          <path id="Path_2959" data-name="Path 2959" d="M417.6,857.6l.009.033h0C417.6,857.625,417.6,857.614,417.6,857.6Z" transform="translate(-417.598 -857.603)" fill="#051a2f"/>
        </g>
        <g id="Group_5918" data-name="Group 5918" transform="translate(12.129)">
          <path id="Path_2960" data-name="Path 2960" d="M368.992,844.514c0,.063,0,.126,0,.189s0,.113-.005.171-.007.14-.012.211c0,.048-.007.1-.012.151,0,.022,0,.044-.007.067,0,.044-.008.088-.013.133,0,.014,0,.028-.005.043v.008c-.007.057-.013.113-.021.17-.018.125-.038.254-.061.381-.01.054-.021.109-.032.164,0,.025-.01.05-.016.076-.011.053-.024.11-.037.167-.141.637-.3,1.289-.464,1.936-.076.3-.157.606-.243.92-.349,1.283-.742,2.561-1.175,3.825s-.906,2.515-1.416,3.742c-.116.281-.239.572-.366.862l-.043.1-.106.029c-.345.1-.7.181-1.063.254l-.437.089.182-.407c.118-.263.238-.537.358-.816a60.742,60.742,0,0,0,2.734-7.8c.18-.654.349-1.308.5-1.946.089-.371.173-.736.251-1.086l.008-.032c.037-.16.068-.322.092-.48.007-.035.011-.067.015-.1s.01-.067.014-.1v-.008c.014-.1.025-.205.034-.315,0-.057.009-.109.012-.16l0-.037c0-.062.006-.122.008-.182a6.993,6.993,0,0,0-.447-2.689c-.025-.068-.052-.135-.079-.2-.054-.131-.113-.265-.177-.4h0c-.045-.093-.093-.187-.148-.289v0l-.052-.094q-.053-.095-.108-.184c-.039-.064-.077-.126-.116-.187s-.068-.1-.1-.157-.06-.086-.09-.127c-.04-.057-.078-.108-.116-.158-.054-.071-.111-.143-.167-.213s-.119-.143-.175-.2-.1-.11-.147-.162-.1-.1-.151-.155c-.1-.1-.212-.2-.319-.3l-.1-.089h0l-.064-.054c-.056-.047-.113-.092-.17-.135-.15-.115-.3-.223-.447-.319a7.045,7.045,0,0,0-5.838-.877l-1.065.31,2.27-1.879.072-.006a8.161,8.161,0,0,1,.927-.025,8.516,8.516,0,0,1,1.665.217h0l.026.006a8.373,8.373,0,0,1,6.453,8.145Z" transform="translate(-357.577 -822.955)" fill="#051a2f"/>
          <path id="Path_2961" data-name="Path 2961" d="M410.034,811.07l.029.052v3.08l-.44-1.008c-.218-.5-.465-1-.735-1.484-.106-.19-.218-.382-.343-.589a17.379,17.379,0,0,0-6.388-6.141l-.231-.126-.3-.161,1.077-.892.136.074.16.09.054.03a18.813,18.813,0,0,1,5.906,5.371l.043.06c.092.131.187.268.28.407C409.543,810.23,409.8,810.646,410.034,811.07Z" transform="translate(-390.731 -798.61)" fill="#051a2f"/>
          <path id="Path_2962" data-name="Path 2962" d="M422.89,792.157l.073.068v1.829l-.392-.4c-.234-.235-.482-.473-.738-.707l-.192-.174a22.263,22.263,0,0,0-2.54-1.964l-.041-.027-.046-.03-.254-.172,1.044-.865.206.14a23.914,23.914,0,0,1,1.953,1.474l.174.148C422.388,791.7,422.642,791.925,422.89,792.157Z" transform="translate(-403.631 -788.012)" fill="#051a2f"/>
          <path id="Path_2963" data-name="Path 2963" d="M403.1,821.333a15.952,15.952,0,0,1,.574,4.261l0,.1a16.17,16.17,0,0,1-1.191,4.119l-.008.02,0,.011c-.03.067-.061.135-.092.2l-.008.016-.01.022-.031.067c-.043.091-.086.182-.13.272l-.012.025c-.073.147-.15.3-.228.44l-.907,1.679.483-1.846c.147-.562.291-1.143.428-1.726.032-.129.063-.259.094-.4l.014-.065a14.881,14.881,0,0,0,.319-2.454c.005-.111.009-.222.012-.332a14.793,14.793,0,0,0-.22-2.9l0-.021a14.806,14.806,0,0,0-8.151-10.732c-.1-.047-.2-.1-.316-.147l-.338-.151.973-.805.132.061c.1.047.2.1.3.147a16.037,16.037,0,0,1,7.9,8.817l.015.039C402.84,820.469,402.978,820.9,403.1,821.333Z" transform="translate(-384.518 -804.02)" fill="#051a2f"/>
          <path id="Path_2964" data-name="Path 2964" d="M393.513,831.892c-.012.251-.031.5-.057.749,0,.04-.008.081-.013.122l0,.023c-.018.149-.037.3-.058.444-.016.1-.033.209-.05.313l-.03.164q-.009.052-.021.108c-.008.05-.019.1-.031.154-.007.035-.015.071-.022.107h.012l-.066.281c-.345,1.487-.739,2.978-1.172,4.432-.164.554-.334,1.1-.505,1.636l-.017.053-.041.04a16.163,16.163,0,0,1-1.3,1.148l-.614.485.254-.74c.154-.445.305-.9.451-1.351.632-1.956,1.19-3.975,1.657-6,.073-.311.135-.629.183-.946.008-.047.014-.09.021-.134.015-.1.026-.187.035-.268,0-.039.008-.073.012-.107l0-.027h0l0-.021c0-.041.008-.076.011-.11.018-.185.032-.365.041-.54.005-.1.01-.2.013-.3,0-.062,0-.123,0-.183a12.022,12.022,0,0,0-.057-1.343c-.008-.083-.016-.166-.027-.248l0-.016q-.014-.117-.031-.234c-.011-.089-.025-.173-.039-.258-.039-.243-.086-.487-.14-.726-.028-.126-.058-.25-.09-.369h0l-.009-.033-.03-.113c-.015-.055-.031-.111-.047-.167l0-.007c-.008-.031-.018-.064-.027-.095-.031-.108-.064-.209-.1-.312-.116-.359-.25-.714-.4-1.056-.042-.1-.085-.193-.129-.289a12.4,12.4,0,0,0-.743-1.372c-.063-.1-.13-.2-.2-.315s-.141-.207-.213-.309c-.057-.08-.115-.158-.175-.238s-.108-.141-.164-.212c-.073-.093-.153-.192-.237-.293-.071-.085-.15-.175-.246-.284-.077-.085-.159-.176-.255-.276-.044-.047-.087-.092-.132-.138s-.086-.087-.13-.13a12.1,12.1,0,0,0-4.4-2.787c-.141-.052-.29-.1-.442-.151l-.4-.129,1.2-.992.124.045c.14.051.279.1.413.159a13.453,13.453,0,0,1,4.587,3.079c.134.137.257.268.374.4.19.212.375.43.547.647.116.145.229.294.335.44.213.292.415.594.6.9.073.119.147.244.219.371a13.486,13.486,0,0,1,1.635,4.729c.019.125.034.251.05.377v0a13.557,13.557,0,0,1,.091,1.79v.03c0,.022,0,.045,0,.067,0,.057,0,.121-.006.184v.029C393.517,831.813,393.515,831.852,393.513,831.892Z" transform="translate(-376.978 -809.694)" fill="#051a2f"/>
          <path id="Path_2965" data-name="Path 2965" d="M383.26,836.918c0-.025,0-.05,0-.075-.008-.174-.018-.331-.032-.482-.005-.061-.011-.12-.018-.177s-.013-.117-.02-.177c-.005-.041-.011-.081-.016-.122h0c-.014-.106-.03-.209-.047-.314s-.036-.209-.057-.313c-.01-.051-.02-.1-.031-.155-.021-.1-.044-.206-.069-.306-.017-.071-.034-.14-.052-.212s-.033-.121-.05-.18-.035-.124-.053-.187-.038-.123-.057-.184-.03-.093-.045-.139c-.057-.174-.119-.345-.182-.507-.018-.048-.037-.1-.055-.139-.042-.1-.086-.207-.131-.311-.04-.089-.079-.177-.121-.265-.073-.154-.152-.311-.234-.466-.022-.04-.043-.079-.065-.119-.036-.066-.072-.131-.109-.194-.021-.037-.043-.073-.061-.1s-.037-.063-.057-.1l-.011-.019c-.038-.065-.078-.128-.117-.189-.016-.027-.034-.053-.05-.077a.409.409,0,0,0-.022-.035c-.032-.05-.065-.1-.1-.147-.007-.012-.015-.022-.022-.034-.042-.062-.084-.122-.128-.183l-.034-.048c-.1-.135-.2-.275-.309-.41-.013-.018-.027-.036-.039-.049-.05-.064-.1-.125-.15-.184s-.082-.1-.123-.145l-.031-.036-.04-.046-.016-.018c-.053-.06-.106-.119-.159-.176-.077-.083-.149-.16-.221-.232l-.141-.14c-.1-.1-.211-.2-.335-.317l-.165-.145c-.16-.14-.33-.278-.52-.424l-.172-.129a10.843,10.843,0,0,0-3.661-1.749c-.1-.027-.2-.052-.3-.076s-.18-.041-.27-.06l-.108-.022-1.314,1.088.514.073c.207.029.417.066.623.108.083.017.171.036.261.057a9.55,9.55,0,0,1,3.59,1.681c.183.138.365.286.542.44q.105.092.206.186c.068.063.135.128.2.192a9.69,9.69,0,0,1,2.888,6.868c0,.048,0,.1,0,.144v.012c0,.048,0,.1,0,.144l-.007.17c0,.052-.005.1-.009.161,0,.029,0,.06-.006.089l0,.028c0,.024,0,.05-.006.082s0,.036-.005.054v.008c0,.024,0,.05-.007.075l-.005.045c0,.043-.008.087-.013.127l0,.021c0,.035-.008.07-.014.112s-.008.059-.012.091l-.011.077,0,.024c0,.028-.008.056-.013.083l0,.012c-.006.043-.014.085-.022.131s-.015.085-.024.132c-.012.064-.025.129-.041.2s-.028.131-.044.2a66.45,66.45,0,0,1-2.757,9.117c-.139.362-.264.68-.383.973l-.213.523.517-.226c.373-.164.743-.343,1.1-.533h.1l.057-.147c.127-.332.258-.68.4-1.067a68.926,68.926,0,0,0,2.456-8.341c.021-.086.039-.173.057-.258.007-.034.013-.068.019-.1.024-.121.046-.242.067-.368.005-.033.01-.067.015-.1.015-.093.028-.188.04-.281v0c.008-.063.015-.122.022-.179s.014-.128.019-.188h0c0-.043.008-.085.011-.124s.007-.086.01-.13l.011-.181c0-.055,0-.109.007-.164v-.012a.338.338,0,0,0,0-.044c0-.111.006-.227.006-.365S383.265,837.045,383.26,836.918Zm-.232-.065c.008.155.011.31.011.466C383.038,837.163,383.034,837.007,383.027,836.853Z" transform="translate(-369.289 -815.773)" fill="#051a2f"/>
          <path id="Path_2966" data-name="Path 2966" d="M429.285,783.629v1.7l-.375-.308c-.183-.151-.365-.3-.543-.433l-.208-.158-.116-.086c-.207-.157-.422-.313-.64-.465l-.017-.011,0,0-.225-.158.894-.782.13-.113.147.1c.036.024.073.051.109.078.279.2.525.388.758.57Z" transform="translate(-409.953 -782.811)" fill="#051a2f"/>
          <path id="Path_2967" data-name="Path 2967" d="M416.4,801.05l.054.064v2.237l-.413-.551c-.238-.317-.485-.627-.736-.92-.086-.1-.174-.2-.263-.3a19.9,19.9,0,0,0-4.5-3.771l-.042-.026-.113-.068-.28-.167,1.125-.931.272.171a21.139,21.139,0,0,1,3.894,3.16l.065.067.178.187C415.9,800.475,416.155,800.761,416.4,801.05Z" transform="translate(-397.12 -793.201)" fill="#051a2f"/>
        </g>
        <g id="Group_5919" data-name="Group 5919" transform="translate(29.305 0.113)">
          <path id="Path_2968" data-name="Path 2968" d="M427.067,784.051l.226.158-.256-.17.235-.2.69-.571Z" transform="translate(-427.036 -783.269)" fill="#051a2f"/>
        </g>
      </g>
    </g>
    <text id="Riby_Enumerator" data-name="Riby
Enumerator" transform="translate(40.288 17.008)" fill="#1a1818" font-size="15" font-family="Poppins-Bold, Poppins" font-weight="700"><tspan x="0" y="0">Riby</tspan><tspan x="0" y="15">Enumerator</tspan></text>
  </g>
</svg>
